<?xml version="1.0" encoding="utf-8"?>
<!-- Generator: Adobe Illustrator 22.1.0, SVG Export Plug-In . SVG Version: 6.00 Build 0)  -->
<svg version="1.1" id="Layer_1" xmlns="http://www.w3.org/2000/svg" xmlns:xlink="http://www.w3.org/1999/xlink" x="0px" y="0px"
	 viewBox="0 0 450 216" style="enable-background:new 0 0 450 216;" xml:space="preserve">
<style type="text/css">
	.st0{fill:#FFFFFF;}
</style>
<path class="st0" d="M197.3,123.4c1.6,0.4,2.3,1.4,2.3,2.9V165c0,0.6,0,1.2,0,1.7h0v1.7h0c-0.2,1.6-0.6,2.7-1.2,3.4
	c-0.8,0.9-2.3,1.3-4.5,1.3h-0.9v1.8h20.7v-1.8h-2.1c-1.8,0-3.2-0.3-4.2-1.1c-0.9-0.8-1.4-2-1.6-3.5V165h-0.1v-13.4
	c0.5,0.2,1.1,0.4,1.6,0.6c2.4,0.8,4.6,1.1,6.3,1.2c2.4-0.1,4.6-0.4,6.7-1.3c2.3-1,4.4-2.5,6.3-4.5c3.7-4,5.5-8.6,5.5-13.9
	c0-4.3-1.3-8.1-3.9-11.4c-2.6-3.3-5.7-4.9-9.1-4.9c-3.5,0-8,2.1-13.6,6.4v-8.2h-2l-9.1,5.6v1.6L197.3,123.4L197.3,123.4z
	 M214.8,121.6c2.7,0,5.2,1.2,7.4,3.6c2.6,2.9,4,7.1,4,12.4c0,3.6-0.9,6.7-2.9,9.2c-2,2.5-4.4,3.8-7.3,3.8c-3.4,0-6.8-1.5-10.4-4.6
	v-20.1C208.9,123,212,121.6,214.8,121.6L214.8,121.6z"/>
<path class="st0" d="M190.1,130.2c0-8.8-2.9-13.2-8.8-13.2c-2.8,0-8,2.3-15.5,7c-0.9-4.7-3.7-7-8.3-7c-1,0-2.2,0.1-3.4,0.4
	c-3.3,0.9-7.4,3.1-12.2,6.6v-7h-1.3l-10.6,3.6v1.5l3.4,0.4c1.1,0.2,1.9,0.7,2.3,1.5c0.2,0.6,0.3,1.5,0.3,3v17.2
	c0,2.3-0.4,4.1-1.3,5.2c-0.9,1-2.6,1.5-5,1.5v1.7H148V151c-2.4,0-3.9-0.2-4.7-0.8c-1-0.7-1.4-2.2-1.4-4.6v-20c5.1-3.4,9-5,11.7-5
	c0.1,0,0.3,0,0.5,0c1.5,0.1,2.9,0.6,3.9,1.6c1.4,1.4,2.1,3.3,2.1,5.8v16.3c-0.1,2.5-0.5,4.2-1.5,5.2c-0.9,0.9-2.4,1.4-4.5,1.5
	c-0.2,0-0.4,0-0.7,0v1.7h18.1V151c-2.1,0-3.6-0.3-4.3-1.1c-0.7-0.7-1.1-2.2-1.1-4.3v-20.2c5-3.3,8.9-4.9,11.7-4.9
	c4.4-0.1,6.5,3.3,6.5,10v6.8c0,7.4-0.4,11.5-1.2,12.4c-0.9,0.8-2.4,1.3-4.6,1.3h-0.8v1.7h19.7V151h-2.8c-3.2,0-4.7-1.3-4.6-3.9
	C190,142.3,190.1,136.7,190.1,130.2L190.1,130.2z"/>
<path class="st0" d="M123.9,122.3c-3.6-3.6-8.1-5.3-13.4-5.3c-5,0-9.3,1.5-13,4.7c-4,3.5-6,8.1-6,13.8c0,5.1,1.8,9.4,5.5,13
	c3.6,3.4,8.2,5.2,13.7,5.2c5.2,0,9.5-1.7,13.2-5.3c3.6-3.6,5.4-7.9,5.4-13C129.3,130.2,127.5,125.8,123.9,122.3L123.9,122.3z
	 M118.7,124.6c2.6,3.6,4,8,4,13.1c0,4.1-1.2,7.6-3.6,10.3c-2.1,2.4-4.6,3.7-7.5,3.7c-3.8,0-7-1.8-9.6-5.4c-2.6-3.7-4-8.3-3.9-13.6
	c0-3.7,1-6.9,3.3-9.5c2.2-2.7,4.8-4,7.8-4C112.9,119.1,116.1,120.9,118.7,124.6L118.7,124.6z"/>
<path class="st0" d="M416.9,152.7V151H415c-3.3,0-5-1.1-4.9-3.5c0.1-1.8,0.2-3.7,0.3-5.5c0.3-3.2,0.3-7.1,0.3-11.8
	c0-8.7-3.1-13.1-9.4-13.1c-1.9,0-4.2,0.7-6.9,2c-1.5,0.7-4.3,2.2-8.2,4.7v-6.8h-1.3l-10.1,3.6v1.4l3,0.6c1.2,0.2,2,0.7,2.3,1.5
	c0.2,0.3,0.3,1.3,0.3,2.8v18.4c0,3.7-1.9,5.5-5.8,5.5v1.7h17.6V151c-2.4,0-3.9-0.4-4.7-1.2c-0.8-0.7-1.2-2.3-1.2-4.8v-18.9
	c5.4-3.7,9.3-5.6,11.7-5.6c4.6,0,6.9,3,6.9,9.2c0,11.9-0.6,18.4-1.7,19.6c-1.1,1.1-2.8,1.7-5.1,1.7v1.7H416.9L416.9,152.7z"/>
<path class="st0" d="M369.4,122.8c-0.1-0.1-0.3-0.3-0.4-0.4c-3.6-3.6-8.1-5.3-13.4-5.3c-5,0-9.3,1.5-12.9,4.7
	c-4,3.5-6.1,8.1-6.1,13.8c0,5.1,1.8,9.4,5.6,13c1.5,1.4,3.2,2.5,5,3.4c2.6,1.1,5.5,1.7,8.6,1.7c1,0,1.9-0.1,2.8-0.2
	c4-0.5,7.4-2.3,10.4-5.1c0.1-0.2,0.3-0.3,0.4-0.5c3.3-3.5,4.9-7.6,4.9-12.5C374.3,130.4,372.7,126.2,369.4,122.8L369.4,122.8z
	 M354.2,119.1c3.6,0,6.8,1.8,9.5,5.5c2.6,3.6,3.9,8,4,13.1c-0.1,4.1-1.2,7.6-3.6,10.3c-2.2,2.4-4.7,3.7-7.4,3.7
	c-3.8,0-7-1.8-9.6-5.4c-2.6-3.7-3.9-8.3-3.9-13.6c0-3.7,1.1-6.9,3.4-9.5C348.7,120.4,351.3,119.1,354.2,119.1L354.2,119.1z"/>
<path class="st0" d="M330.4,116.6H329l-11.3,3.9v1.3l4.1,0.8c1.3,0.3,2.1,0.7,2.5,1.4c0.1,0.4,0.2,1.4,0.2,2.9v17.6
	c0,2.3-0.5,4-1.6,4.9c-1.1,1-2.9,1.4-5.6,1.4v1.7h19.4V151c-4.2,0-6.3-1.7-6.3-5V116.6L330.4,116.6z"/>
<path class="st0" d="M312,126.4l-0.2-8c-2.3-0.9-4.7-1.4-7-1.3c-3.3,0-6,0.8-8,2.7c-2.1,1.7-3.2,4.1-3.2,7.1c0.1,2.1,0.7,4,2,5.5
	c0.8,0.9,2.5,2.2,5.1,3.9c2.5,1.7,4.6,3.3,6,4.8c1.8,1.8,2.8,3.6,2.8,5.3c0,1.6-0.6,3-1.8,4.1c-0.9,0.8-1.9,1.3-3,1.6
	c-0.4,0.1-0.9,0.1-1.4,0.1c-0.5,0-1-0.1-1.4-0.1c-1.4-0.3-2.7-1-3.8-2.1c-1.5-1.4-2.6-3.5-3.1-6.1h-1.4l1,9.9h1.2
	c0.5-0.8,0.9-1.2,1.4-1.1c0.6,0,1.5,0.2,2.9,0.6c1.3,0.4,2.4,0.6,3.4,0.6c2.4,0,4.5-0.6,6.4-1.7c0.4-0.3,0.9-0.7,1.3-1.1
	c2.1-1.9,3.1-4.3,3.1-7.2c0-3-1.4-5.7-4.2-8.1c-2.6-1.8-5.3-3.6-7.9-5.5c-2.7-1.9-4.1-3.9-4.1-6c0-1.4,0.5-2.6,1.6-3.5
	c1-1,2.3-1.4,3.7-1.4c1.7,0,3.2,0.6,4.5,1.9c1.2,1.3,2.1,3.1,2.4,5.4H312L312,126.4z"/>
<path class="st0" d="M287.2,126.4l-0.2-8c-2.3-0.9-4.6-1.4-7-1.3c-3.3,0-6,0.8-8.1,2.7c-2,1.7-3.1,4.1-3.1,7.1c0,2.1,0.6,4,2,5.5
	c0.8,0.9,2.5,2.2,5.1,3.9c2.5,1.7,4.5,3.3,6,4.8c1.9,1.8,2.8,3.6,2.8,5.3c0,1.6-0.6,3-1.8,4.1c-0.9,0.8-1.9,1.3-3,1.6
	c-0.4,0.1-0.9,0.1-1.4,0.1c-0.4,0-0.9-0.1-1.3-0.1c-1.4-0.3-2.7-1-3.8-2.1c-1.5-1.4-2.5-3.5-3-6.1h-1.4l0.9,9.9h1.2
	c0.5-0.8,1-1.2,1.5-1.1c0.5,0,1.5,0.2,2.9,0.6c1.3,0.4,2.4,0.6,3.4,0.6c2.4,0,4.5-0.6,6.3-1.7c0.5-0.3,1-0.7,1.4-1.1
	c2-1.9,3.1-4.3,3.1-7.2c0-3-1.4-5.7-4.2-8.1c-2.6-1.8-5.3-3.6-7.9-5.5c-2.8-1.9-4.1-3.9-4.1-6c0-1.4,0.5-2.6,1.5-3.5
	c1-1,2.3-1.4,3.8-1.4c1.7,0,3.2,0.6,4.5,1.9c1.3,1.3,2.1,3.1,2.4,5.4H287.2L287.2,126.4z"/>
<path class="st0" d="M261.5,149.6c-1,0-1.7-0.5-1.9-1.6c-0.2-0.9-0.3-3.2-0.3-7v-11.8c0-3.8-0.4-6.3-1.3-7.6
	c-2.2-3.1-5.3-4.6-9.2-4.6c-2.7,0-5.5,1.2-8.5,3.7c-2.9,2.5-4.4,4.7-4.4,6.4c0,0.3,0.1,0.6,0.2,1.2l6-2.9c-0.3-0.7-0.5-1.2-0.5-1.6
	c0-1,0.5-2,1.6-3c1.1-0.9,2.3-1.4,3.8-1.3c1.9-0.1,3.5,0.8,4.9,2.5c0.9,1.2,1.5,3.1,1.5,5.6v7c-2.6,1.5-5.2,2.7-7.7,3.3
	c-3.4,0.8-5.8,1.7-7.3,2.8c-2,1.4-3,3.3-3,5.7c0,2.2,0.7,3.9,2.1,5.3c0.1,0,0.2,0.1,0.2,0.2c1.4,1.1,3.3,1.7,5.7,1.7
	c1.4,0,2.6-0.3,3.7-0.8c0.6-0.2,1.1-0.6,1.7-0.9c1.3-0.9,2.8-2.1,4.7-3.6c0.1,1.5,0.4,2.7,0.9,3.6c0.7,1.1,1.7,1.7,3.1,1.7
	c1.1,0,2.7-0.6,4.6-1.7c1.2-0.8,2.6-1.8,4.1-3l-0.4-1.3C264.3,148.9,262.8,149.6,261.5,149.6L261.5,149.6z M248.3,138.8
	c2.1-0.8,3.8-1.6,5.1-2.4v10.4c-3.7,2.6-6.1,3.9-7.3,3.9c-1.4,0-2.6-0.5-3.6-1.4c-1.1-1-1.6-2.2-1.6-3.7c0-1.7,0.5-3,1.7-3.9
	C243.3,141,245.3,140.1,248.3,138.8L248.3,138.8z"/>
<g>
	<path class="st0" d="M107,55.4c5.8,0.3,10.6-3.7,10.9-8.9c0.2-5.2-4.2-9.6-10-9.9c-5.8-0.3-10.6,3.7-10.9,8.9
		C96.7,50.7,101.2,55.2,107,55.4z"/>
	<path class="st0" d="M135,36.7c0,0-5.4,9.6-17.5,16.4c-12,6.8-22.8,10.8-33,26.7c0,0,3-1.4,0.9,2c0,0,1.6-1.5,2.9-1.9
		c0,0,0.8-0.2,0.5,0.8c0,0,5.4-4.2,4-2.2c-0.8,1.2,4.3-3.9,4.9-3.4c0,0,0.2,0.3-0.6,1.5c0,0,12.2-7.3,16.7-9.3
		c19.7-8.4,24-22.3,22.2-30.1C136.2,37.2,136.1,35.7,135,36.7z"/>
	<path class="st0" d="M93.9,104.4c0,0,0.8-20.6,13.7-31.1c12.8-10.5,25-8.6,30.1-8.9c0,0,10.4,0.3,15.6-1.5c0,0,0.8,9.2-24.8,13.6
		c0,0-8.4-0.1-15.6,9.5c0,0-7.1,8-13.7,24.6c0,0-0.1-2.4-1-0.7l-2.5,5.6l-0.1-5.2c0,0-0.4-1.3-1,0.5c0,0-0.5,0.6,0.3-6.3
		C94.9,104.2,94.7,102.8,93.9,104.4z"/>
</g>
<path class="st0" d="M84.9,112.7C82,104.6,74.5,99.3,65,99.3c-14.6,0-23.7,10.6-23.7,25.2c0,15.8,11.4,27.4,24.6,27.4
	c6.9,0,15.4-2.4,21.3-12.9h1.7c-1.1,3.9-3.5,9.3-5.6,12.8c-5.6-0.8-9.4,2.4-19.7,2.4c-17.7,0-30.5-11.7-30.5-27.9
	c0-16.9,13.1-29.2,31.4-29.2c11,0,15.7,3.5,18.4,3.5c1,0,1.4-0.3,1.6-0.5h1.3l0.8,12.7H84.9z"/>
<g>
	<path class="st0" d="M408.6,103.3c2.9,0,5.4,2.3,5.4,5.4c0,3.1-2.5,5.4-5.4,5.4c-2.9,0-5.4-2.3-5.4-5.4
		C403.2,105.6,405.7,103.3,408.6,103.3z M408.6,113.3c2.5,0,4.4-2,4.4-4.6c0-2.6-1.9-4.6-4.4-4.6c-2.5,0-4.4,2-4.4,4.6
		C404.2,111.3,406.1,113.3,408.6,113.3z M406.5,105.5h2.4c1.5,0,2.2,0.6,2.2,1.8c0,1.1-0.7,1.6-1.7,1.7l1.8,2.8h-1.1l-1.7-2.7h-1
		v2.7h-1V105.5z M407.5,108.3h1c0.9,0,1.7,0,1.7-1c0-0.8-0.7-1-1.4-1h-1.3V108.3z"/>
</g>
</svg>
